STARTFONT 2.1
COMMENT -------------------------------------------
FONT -Milkjf-Fixed-Bold-R-Normal--16-150-75-75-C-80-JISX0201.1976-0
SIZE 16 75 75
FONTBOUNDINGBOX 8 16 0 -2
STARTPROPERTIES 19
FONTNAME_REGISTRY ""
FOUNDRY "Milkjf"
FAMILY_NAME "Fixed"
WEIGHT_NAME "Bold"
SLANT "R"
SETWIDTH_NAME "Normal"
ADD_STYLE_NAME ""
PIXEL_SIZE 16
POINT_SIZE 150
RESOLUTION_X 75
RESOLUTION_Y 75
SPACING "C"
AVERAGE_WIDTH 80
CHARSET_REGISTRY "JISX0201.1976"
CHARSET_ENCODING "0"
DEFAULT_CHAR 32
FONT_DESCENT 2
FONT_ASCENT 14
COPYRIGHT "Public Domain"
ENDPROPERTIES
CHARS 256
STARTCHAR 0
ENCODING 0
SWIDTH 480 0
DWIDTH 8 0
BBX 8 16 0 -2
BITMAP
00
00
00
00
00
00
00
00
00
00
00
00
00
00
00
00
ENDCHAR
STARTCHAR 1
ENCODING 1
SWIDTH 480 0
DWIDTH 8 0
BBX 8 16 0 -2
BITMAP
00
78
cc
c0
78
0c
cc
78
33
33
33
3f
33
33
33
00
ENDCHAR
STARTCHAR 2
ENCODING 2
SWIDTH 480 0
DWIDTH 8 0
BBX 8 16 0 -2
BITMAP
00
78
cc
c0
78
0c
cc
78
33
33
16
0c
16
33
33
00
ENDCHAR
STARTCHAR 3
ENCODING 3
SWIDTH 480 0
DWIDTH 8 0
BBX 8 16 0 -2
BITMAP
00
fc
c0
c0
f8
c0
c0
fc
33
33
16
0c
16
33
33
00
ENDCHAR
STARTCHAR 4
ENCODING 4
SWIDTH 480 0
DWIDTH 8 0
BBX 8 16 0 -2
BITMAP
00
fc
c0
c0
f8
c0
c0
fc
00
3f
0c
0c
0c
0c
0c
00
ENDCHAR
STARTCHAR 5
ENCODING 5
SWIDTH 480 0
DWIDTH 8 0
BBX 8 16 0 -2
BITMAP
00
fc
c0
c0
f8
c0
c0
fc
00
1e
33
33
2b
36
1b
00
ENDCHAR
STARTCHAR 6
ENCODING 6
SWIDTH 480 0
DWIDTH 8 0
BBX 8 16 0 -2
BITMAP
00
78
cc
cc
fc
cc
cc
cc
33
36
2c
38
2c
36
33
00
ENDCHAR
STARTCHAR 7
ENCODING 7
SWIDTH 480 0
DWIDTH 8 0
BBX 8 16 0 -2
BITMAP
00
f8
cc
cc
f8
cc
cc
f8
00
30
30
30
30
30
3f
00
ENDCHAR
STARTCHAR 8
ENCODING 8
SWIDTH 480 0
DWIDTH 8 0
BBX 8 16 0 -2
BITMAP
00
f8
cc
cc
f8
cc
cc
f8
1e
33
30
1e
03
33
1e
00
ENDCHAR
STARTCHAR 9
ENCODING 9
SWIDTH 480 0
DWIDTH 8 0
BBX 8 16 0 -2
BITMAP
00
cc
cc
cc
fc
cc
cc
cc
00
3f
0c
0c
0c
0c
0c
00
ENDCHAR
STARTCHAR a
ENCODING 10
SWIDTH 480 0
DWIDTH 8 0
BBX 8 16 0 -2
BITMAP
00
c0
c0
c0
c0
c0
fc
00
3f
30
30
3e
30
30
30
00
ENDCHAR
STARTCHAR b
ENCODING 11
SWIDTH 480 0
DWIDTH 8 0
BBX 8 16 0 -2
BITMAP
00
cc
cc
cc
cc
cc
58
30
00
3f
0c
0c
0c
0c
0c
00
ENDCHAR
STARTCHAR c
ENCODING 12
SWIDTH 480 0
DWIDTH 8 0
BBX 8 16 0 -2
BITMAP
00
fc
c0
c0
f8
c0
c0
c0
3f
30
30
3e
30
30
30
00
ENDCHAR
STARTCHAR d
ENCODING 13
SWIDTH 480 0
DWIDTH 8 0
BBX 8 16 0 -2
BITMAP
00
78
cc
c0
c0
cc
78
00
3e
33
33
3e
2c
36
33
00
ENDCHAR
STARTCHAR e
ENCODING 14
SWIDTH 480 0
DWIDTH 8 0
BBX 8 16 0 -2
BITMAP
00
78
cc
c0
78
0c
cc
78
00
1e
33
33
33
33
1e
00
ENDCHAR
STARTCHAR f
ENCODING 15
SWIDTH 480 0
DWIDTH 8 0
BBX 8 16 0 -2
BITMAP
00
78
cc
c0
78
0c
cc
78
00
1e
0c
0c
0c
0c
1e
00
ENDCHAR
STARTCHAR 10
ENCODING 16
SWIDTH 480 0
DWIDTH 8 0
BBX 8 16 0 -2
BITMAP
00
f8
cc
cc
cc
cc
f8
00
3f
30
30
3e
30
30
3f
00
ENDCHAR
STARTCHAR 11
ENCODING 17
SWIDTH 480 0
DWIDTH 8 0
BBX 8 16 0 -2
BITMAP
00
f8
cc
cc
cc
cc
f8
00
0c
1c
0c
0c
0c
0c
1e
00
ENDCHAR
STARTCHAR 12
ENCODING 18
SWIDTH 480 0
DWIDTH 8 0
BBX 8 16 0 -2
BITMAP
00
f8
cc
cc
cc
cc
f8
00
1e
33
03
0e
18
30
3f
00
ENDCHAR
STARTCHAR 13
ENCODING 19
SWIDTH 480 0
DWIDTH 8 0
BBX 8 16 0 -2
BITMAP
00
f8
cc
cc
cc
cc
f8
00
1e
33
03
0e
03
33
1e
00
ENDCHAR
STARTCHAR 14
ENCODING 20
SWIDTH 480 0
DWIDTH 8 0
BBX 8 16 0 -2
BITMAP
00
f8
cc
cc
cc
cc
f8
00
06
0e
16
36
3f
06
06
00
ENDCHAR
STARTCHAR 15
ENCODING 21
SWIDTH 480 0
DWIDTH 8 0
BBX 8 16 0 -2
BITMAP
00
cc
cc
ec
ac
dc
cc
cc
33
36
2c
38
2c
36
33
00
ENDCHAR
STARTCHAR 16
ENCODING 22
SWIDTH 480 0
DWIDTH 8 0
BBX 8 16 0 -2
BITMAP
00
78
cc
c0
78
0c
cc
78
33
33
3b
2b
37
33
33
00
ENDCHAR
STARTCHAR 17
ENCODING 23
SWIDTH 480 0
DWIDTH 8 0
BBX 8 16 0 -2
BITMAP
00
fc
c0
c0
f8
c0
c0
fc
3e
33
33
3e
33
33
3e
00
ENDCHAR
STARTCHAR 18
ENCODING 24
SWIDTH 480 0
DWIDTH 8 0
BBX 8 16 0 -2
BITMAP
00
78
cc
c0
c0
cc
78
00
33
33
3b
2b
37
33
33
00
ENDCHAR
STARTCHAR 19
ENCODING 25
SWIDTH 480 0
DWIDTH 8 0
BBX 8 16 0 -2
BITMAP
00
fc
c0
c0
f8
c0
c0
fc
00
33
37
2b
33
33
33
00
ENDCHAR
STARTCHAR 1a
ENCODING 26
SWIDTH 480 0
DWIDTH 8 0
BBX 8 16 0 -2
BITMAP
00
78
cc
c0
78
0c
cc
78
3e
33
33
3e
33
33
3e
00
ENDCHAR
STARTCHAR 1b
ENCODING 27
SWIDTH 480 0
DWIDTH 8 0
BBX 8 16 0 -2
BITMAP
00
fc
c0
c0
f8
c0
c0
fc
00
1e
33
30
30
33
1e
00
ENDCHAR
STARTCHAR 1c
ENCODING 28
SWIDTH 480 0
DWIDTH 8 0
BBX 8 16 0 -2
BITMAP
00
00
00
00
0c
0c
06
ff
06
0c
0c
00
00
00
00
00
ENDCHAR
STARTCHAR 1d
ENCODING 29
SWIDTH 480 0
DWIDTH 8 0
BBX 8 16 0 -2
BITMAP
00
00
00
00
30
30
60
ff
60
30
30
00
00
00
00
00
ENDCHAR
STARTCHAR 1e
ENCODING 30
SWIDTH 480 0
DWIDTH 8 0
BBX 8 16 0 -2
BITMAP
00
00
18
18
3c
3c
5a
5a
18
18
18
18
18
18
00
00
ENDCHAR
STARTCHAR 1f
ENCODING 31
SWIDTH 480 0
DWIDTH 8 0
BBX 8 16 0 -2
BITMAP
00
00
18
18
18
18
18
18
5a
5a
3c
3c
18
18
00
00
ENDCHAR
STARTCHAR 20
ENCODING 32
SWIDTH 480 0
DWIDTH 8 0
BBX 8 16 0 -2
BITMAP
00
00
00
00
00
00
00
00
00
00
00
00
00
00
00
00
ENDCHAR
STARTCHAR 21
ENCODING 33
SWIDTH 480 0
DWIDTH 8 0
BBX 8 16 0 -2
BITMAP
00
00
18
18
18
18
18
18
18
18
00
00
18
18
00
00
ENDCHAR
STARTCHAR 22
ENCODING 34
SWIDTH 480 0
DWIDTH 8 0
BBX 8 16 0 -2
BITMAP
00
00
6e
36
36
6c
00
00
00
00
00
00
00
00
00
00
ENDCHAR
STARTCHAR 23
ENCODING 35
SWIDTH 480 0
DWIDTH 8 0
BBX 8 16 0 -2
BITMAP
00
00
66
66
66
ff
66
66
66
66
ff
66
66
66
00
00
ENDCHAR
STARTCHAR 24
ENCODING 36
SWIDTH 480 0
DWIDTH 8 0
BBX 8 16 0 -2
BITMAP
00
00
18
18
7e
db
d8
7e
1b
1b
db
7e
18
18
00
00
ENDCHAR
STARTCHAR 25
ENCODING 37
SWIDTH 480 0
DWIDTH 8 0
BBX 8 16 0 -2
BITMAP
00
00
00
70
d8
db
76
0c
18
30
6e
db
1b
0e
00
00
ENDCHAR
STARTCHAR 26
ENCODING 38
SWIDTH 480 0
DWIDTH 8 0
BBX 8 16 0 -2
BITMAP
00
00
00
78
cc
cc
cc
58
30
78
cb
c6
ce
7b
00
00
ENDCHAR
STARTCHAR 27
ENCODING 39
SWIDTH 480 0
DWIDTH 8 0
BBX 8 16 0 -2
BITMAP
00
00
38
18
18
30
00
00
00
00
00
00
00
00
00
00
ENDCHAR
STARTCHAR 28
ENCODING 40
SWIDTH 480 0
DWIDTH 8 0
BBX 8 16 0 -2
BITMAP
00
06
0c
18
18
30
30
30
30
30
30
18
18
0c
06
00
ENDCHAR
STARTCHAR 29
ENCODING 41
SWIDTH 480 0
DWIDTH 8 0
BBX 8 16 0 -2
BITMAP
00
30
18
0c
0c
06
06
06
06
06
06
0c
0c
18
30
00
ENDCHAR
STARTCHAR 2a
ENCODING 42
SWIDTH 480 0
DWIDTH 8 0
BBX 8 16 0 -2
BITMAP
00
00
00
00
18
56
3c
18
3c
56
18
00
00
00
00
00
ENDCHAR
STARTCHAR 2b
ENCODING 43
SWIDTH 480 0
DWIDTH 8 0
BBX 8 16 0 -2
BITMAP
00
00
00
00
18
18
18
ff
18
18
18
00
00
00
00
00
ENDCHAR
STARTCHAR 2c
ENCODING 44
SWIDTH 480 0
DWIDTH 8 0
BBX 8 16 0 -2
BITMAP
00
00
00
00
00
00
00
00
00
00
00
00
38
18
18
30
ENDCHAR
STARTCHAR 2d
ENCODING 45
SWIDTH 480 0
DWIDTH 8 0
BBX 8 16 0 -2
BITMAP
00
00
00
00
00
00
00
ff
00
00
00
00
00
00
00
00
ENDCHAR
STARTCHAR 2e
ENCODING 46
SWIDTH 480 0
DWIDTH 8 0
BBX 8 16 0 -2
BITMAP
00
00
00
00
00
00
00
00
00
00
00
00
38
38
00
00
ENDCHAR
STARTCHAR 2f
ENCODING 47
SWIDTH 480 0
DWIDTH 8 0
BBX 8 16 0 -2
BITMAP
00
00
03
03
06
06
0c
0c
18
18
30
30
60
60
00
00
ENDCHAR
STARTCHAR 30
ENCODING 48
SWIDTH 480 0
DWIDTH 8 0
BBX 8 16 0 -2
BITMAP
00
00
3e
63
67
67
6b
6b
6b
6b
73
73
63
3e
00
00
ENDCHAR
STARTCHAR 31
ENCODING 49
SWIDTH 480 0
DWIDTH 8 0
BBX 8 16 0 -2
BITMAP
00
00
0c
1c
2c
0c
0c
0c
0c
0c
0c
0c
0c
3f
00
00
ENDCHAR
STARTCHAR 32
ENCODING 50
SWIDTH 480 0
DWIDTH 8 0
BBX 8 16 0 -2
BITMAP
00
00
3c
66
c3
c3
03
06
0c
18
30
60
c0
ff
00
00
ENDCHAR
STARTCHAR 33
ENCODING 51
SWIDTH 480 0
DWIDTH 8 0
BBX 8 16 0 -2
BITMAP
00
00
7e
0c
18
30
7c
06
03
03
03
c3
66
3c
00
00
ENDCHAR
STARTCHAR 34
ENCODING 52
SWIDTH 480 0
DWIDTH 8 0
BBX 8 16 0 -2
BITMAP
00
00
0c
1c
1c
3c
2c
6c
6c
cc
ff
0c
0c
0c
00
00
ENDCHAR
STARTCHAR 35
ENCODING 53
SWIDTH 480 0
DWIDTH 8 0
BBX 8 16 0 -2
BITMAP
00
00
7f
60
60
60
7c
66
03
03
03
c3
66
3c
00
00
ENDCHAR
STARTCHAR 36
ENCODING 54
SWIDTH 480 0
DWIDTH 8 0
BBX 8 16 0 -2
BITMAP
00
00
3c
66
c3
c0
bc
e6
c3
c3
c3
c3
66
3c
00
00
ENDCHAR
STARTCHAR 37
ENCODING 55
SWIDTH 480 0
DWIDTH 8 0
BBX 8 16 0 -2
BITMAP
00
00
ff
c3
c3
03
06
0c
0c
18
18
18
18
18
00
00
ENDCHAR
STARTCHAR 38
ENCODING 56
SWIDTH 480 0
DWIDTH 8 0
BBX 8 16 0 -2
BITMAP
00
00
3c
66
c3
c3
66
3c
66
c3
c3
c3
66
3c
00
00
ENDCHAR
STARTCHAR 39
ENCODING 57
SWIDTH 480 0
DWIDTH 8 0
BBX 8 16 0 -2
BITMAP
00
00
3c
66
c3
c3
c3
67
3b
03
03
c3
66
3c
00
00
ENDCHAR
STARTCHAR 3a
ENCODING 58
SWIDTH 480 0
DWIDTH 8 0
BBX 8 16 0 -2
BITMAP
00
00
00
00
1c
1c
00
00
00
00
1c
1c
00
00
00
00
ENDCHAR
STARTCHAR 3b
ENCODING 59
SWIDTH 480 0
DWIDTH 8 0
BBX 8 16 0 -2
BITMAP
00
00
00
00
1c
1c
00
00
00
00
1c
0c
0c
18
00
00
ENDCHAR
STARTCHAR 3c
ENCODING 60
SWIDTH 480 0
DWIDTH 8 0
BBX 8 16 0 -2
BITMAP
00
00
00
03
06
0c
18
30
60
30
18
0c
06
03
00
00
ENDCHAR
STARTCHAR 3d
ENCODING 61
SWIDTH 480 0
DWIDTH 8 0
BBX 8 16 0 -2
BITMAP
00
00
00
00
00
00
ff
00
00
ff
00
00
00
00
00
00
ENDCHAR
STARTCHAR 3e
ENCODING 62
SWIDTH 480 0
DWIDTH 8 0
BBX 8 16 0 -2
BITMAP
00
00
00
60
30
18
0c
06
03
06
0c
18
30
60
00
00
ENDCHAR
STARTCHAR 3f
ENCODING 63
SWIDTH 480 0
DWIDTH 8 0
BBX 8 16 0 -2
BITMAP
00
00
3c
66
c3
03
06
0c
18
18
00
00
18
18
00
00
ENDCHAR
STARTCHAR 40
ENCODING 64
SWIDTH 480 0
DWIDTH 8 0
BBX 8 16 0 -2
BITMAP
00
00
3c
66
db
ab
ab
ab
ab
ab
ae
d8
60
3e
00
00
ENDCHAR
STARTCHAR 41
ENCODING 65
SWIDTH 480 0
DWIDTH 8 0
BBX 8 16 0 -2
BITMAP
00
00
18
18
3c
2c
2c
66
66
66
ff
c3
c3
c3
00
00
ENDCHAR
STARTCHAR 42
ENCODING 66
SWIDTH 480 0
DWIDTH 8 0
BBX 8 16 0 -2
BITMAP
00
00
fc
66
63
63
66
7c
66
63
63
63
66
fc
00
00
ENDCHAR
STARTCHAR 43
ENCODING 67
SWIDTH 480 0
DWIDTH 8 0
BBX 8 16 0 -2
BITMAP
00
00
3c
66
c3
c0
c0
c0
c0
c0
c0
c3
66
3c
00
00
ENDCHAR
STARTCHAR 44
ENCODING 68
SWIDTH 480 0
DWIDTH 8 0
BBX 8 16 0 -2
BITMAP
00
00
fc
66
63
63
63
63
63
63
63
63
66
fc
00
00
ENDCHAR
STARTCHAR 45
ENCODING 69
SWIDTH 480 0
DWIDTH 8 0
BBX 8 16 0 -2
BITMAP
00
00
7f
60
60
60
60
7e
60
60
60
60
60
7f
00
00
ENDCHAR
STARTCHAR 46
ENCODING 70
SWIDTH 480 0
DWIDTH 8 0
BBX 8 16 0 -2
BITMAP
00
00
7f
60
60
60
60
7e
60
60
60
60
60
60
00
00
ENDCHAR
STARTCHAR 47
ENCODING 71
SWIDTH 480 0
DWIDTH 8 0
BBX 8 16 0 -2
BITMAP
00
00
3c
66
c3
c0
c0
c0
cf
c3
c3
c3
67
3c
00
00
ENDCHAR
STARTCHAR 48
ENCODING 72
SWIDTH 480 0
DWIDTH 8 0
BBX 8 16 0 -2
BITMAP
00
00
63
63
63
63
63
7f
63
63
63
63
63
63
00
00
ENDCHAR
STARTCHAR 49
ENCODING 73
SWIDTH 480 0
DWIDTH 8 0
BBX 8 16 0 -2
BITMAP
00
00
3c
18
18
18
18
18
18
18
18
18
18
3c
00
00
ENDCHAR
STARTCHAR 4a
ENCODING 74
SWIDTH 480 0
DWIDTH 8 0
BBX 8 16 0 -2
BITMAP
00
00
0f
06
06
06
06
06
06
06
06
66
66
3c
00
00
ENDCHAR
STARTCHAR 4b
ENCODING 75
SWIDTH 480 0
DWIDTH 8 0
BBX 8 16 0 -2
BITMAP
00
00
63
63
66
66
6c
78
6c
6c
66
66
63
63
00
00
ENDCHAR
STARTCHAR 4c
ENCODING 76
SWIDTH 480 0
DWIDTH 8 0
BBX 8 16 0 -2
BITMAP
00
00
60
60
60
60
60
60
60
60
60
60
60
7f
00
00
ENDCHAR
STARTCHAR 4d
ENCODING 77
SWIDTH 480 0
DWIDTH 8 0
BBX 8 16 0 -2
BITMAP
00
00
c3
c3
e7
e7
db
db
db
db
c3
c3
c3
c3
00
00
ENDCHAR
STARTCHAR 4e
ENCODING 78
SWIDTH 480 0
DWIDTH 8 0
BBX 8 16 0 -2
BITMAP
00
00
c3
e3
e3
f3
d3
db
db
cb
cf
c7
c7
c3
00
00
ENDCHAR
STARTCHAR 4f
ENCODING 79
SWIDTH 480 0
DWIDTH 8 0
BBX 8 16 0 -2
BITMAP
00
00
3c
66
c3
c3
c3
c3
c3
c3
c3
c3
66
3c
00
00
ENDCHAR
STARTCHAR 50
ENCODING 80
SWIDTH 480 0
DWIDTH 8 0
BBX 8 16 0 -2
BITMAP
00
00
7c
66
63
63
66
7c
60
60
60
60
60
60
00
00
ENDCHAR
STARTCHAR 51
ENCODING 81
SWIDTH 480 0
DWIDTH 8 0
BBX 8 16 0 -2
BITMAP
00
00
3c
66
c3
c3
c3
c3
c3
c3
db
f7
76
3b
00
00
ENDCHAR
STARTCHAR 52
ENCODING 82
SWIDTH 480 0
DWIDTH 8 0
BBX 8 16 0 -2
BITMAP
00
00
7c
66
63
63
66
7c
66
66
63
63
63
63
00
00
ENDCHAR
STARTCHAR 53
ENCODING 83
SWIDTH 480 0
DWIDTH 8 0
BBX 8 16 0 -2
BITMAP
00
00
3c
66
c3
c0
60
3c
06
03
03
c3
66
3c
00
00
ENDCHAR
STARTCHAR 54
ENCODING 84
SWIDTH 480 0
DWIDTH 8 0
BBX 8 16 0 -2
BITMAP
00
00
ff
18
18
18
18
18
18
18
18
18
18
18
00
00
ENDCHAR
STARTCHAR 55
ENCODING 85
SWIDTH 480 0
DWIDTH 8 0
BBX 8 16 0 -2
BITMAP
00
00
63
63
63
63
63
63
63
63
63
63
63
3e
00
00
ENDCHAR
STARTCHAR 56
ENCODING 86
SWIDTH 480 0
DWIDTH 8 0
BBX 8 16 0 -2
BITMAP
00
00
c3
c3
c3
66
66
66
2c
2c
3c
18
18
18
00
00
ENDCHAR
STARTCHAR 57
ENCODING 87
SWIDTH 480 0
DWIDTH 8 0
BBX 8 16 0 -2
BITMAP
00
00
c3
c3
c3
db
db
db
db
db
db
66
66
66
00
00
ENDCHAR
STARTCHAR 58
ENCODING 88
SWIDTH 480 0
DWIDTH 8 0
BBX 8 16 0 -2
BITMAP
00
00
c3
c3
66
66
2c
18
18
2c
66
66
c3
c3
00
00
ENDCHAR
STARTCHAR 59
ENCODING 89
SWIDTH 480 0
DWIDTH 8 0
BBX 8 16 0 -2
BITMAP
00
00
c3
c3
66
66
2c
18
18
18
18
18
18
18
00
00
ENDCHAR
STARTCHAR 5a
ENCODING 90
SWIDTH 480 0
DWIDTH 8 0
BBX 8 16 0 -2
BITMAP
00
00
ff
03
06
06
0c
18
18
30
60
60
c0
ff
00
00
ENDCHAR
STARTCHAR 5b
ENCODING 91
SWIDTH 480 0
DWIDTH 8 0
BBX 8 16 0 -2
BITMAP
00
3e
30
30
30
30
30
30
30
30
30
30
30
30
3e
00
ENDCHAR
STARTCHAR 5c
ENCODING 92
SWIDTH 480 0
DWIDTH 8 0
BBX 8 16 0 -2
BITMAP
00
00
c3
66
3c
18
ff
18
18
ff
18
18
18
18
00
00
ENDCHAR
STARTCHAR 5d
ENCODING 93
SWIDTH 480 0
DWIDTH 8 0
BBX 8 16 0 -2
BITMAP
00
7c
0c
0c
0c
0c
0c
0c
0c
0c
0c
0c
0c
0c
7c
00
ENDCHAR
STARTCHAR 5e
ENCODING 94
SWIDTH 480 0
DWIDTH 8 0
BBX 8 16 0 -2
BITMAP
00
00
18
3c
66
c3
00
00
00
00
00
00
00
00
00
00
ENDCHAR
STARTCHAR 5f
ENCODING 95
SWIDTH 480 0
DWIDTH 8 0
BBX 8 16 0 -2
BITMAP
00
00
00
00
00
00
00
00
00
00
00
00
00
ff
00
00
ENDCHAR
STARTCHAR 60
ENCODING 96
SWIDTH 480 0
DWIDTH 8 0
BBX 8 16 0 -2
BITMAP
00
00
60
30
18
00
00
00
00
00
00
00
00
00
00
00
ENDCHAR
STARTCHAR 61
ENCODING 97
SWIDTH 480 0
DWIDTH 8 0
BBX 8 16 0 -2
BITMAP
00
00
00
00
00
00
3e
63
07
3b
63
63
67
3b
00
00
ENDCHAR
STARTCHAR 62
ENCODING 98
SWIDTH 480 0
DWIDTH 8 0
BBX 8 16 0 -2
BITMAP
00
00
60
60
60
60
6c
76
63
63
63
63
76
5c
00
00
ENDCHAR
STARTCHAR 63
ENCODING 99
SWIDTH 480 0
DWIDTH 8 0
BBX 8 16 0 -2
BITMAP
00
00
00
00
00
00
1e
33
60
60
60
60
33
1e
00
00
ENDCHAR
STARTCHAR 64
ENCODING 100
SWIDTH 480 0
DWIDTH 8 0
BBX 8 16 0 -2
BITMAP
00
00
03
03
03
03
1b
37
63
63
63
63
37
1b
00
00
ENDCHAR
STARTCHAR 65
ENCODING 101
SWIDTH 480 0
DWIDTH 8 0
BBX 8 16 0 -2
BITMAP
00
00
00
00
00
00
3c
66
c3
ff
c0
c0
67
3e
00
00
ENDCHAR
STARTCHAR 66
ENCODING 102
SWIDTH 480 0
DWIDTH 8 0
BBX 8 16 0 -2
BITMAP
00
00
0e
1b
18
18
7e
18
18
18
18
18
18
18
00
00
ENDCHAR
STARTCHAR 67
ENCODING 103
SWIDTH 480 0
DWIDTH 8 0
BBX 8 16 0 -2
BITMAP
00
00
00
00
00
00
3b
67
c3
c3
c3
67
3b
03
e6
7c
ENDCHAR
STARTCHAR 68
ENCODING 104
SWIDTH 480 0
DWIDTH 8 0
BBX 8 16 0 -2
BITMAP
00
00
60
60
60
60
7c
76
63
63
63
63
63
63
00
00
ENDCHAR
STARTCHAR 69
ENCODING 105
SWIDTH 480 0
DWIDTH 8 0
BBX 8 16 0 -2
BITMAP
00
00
18
18
00
00
38
18
18
18
18
18
18
3c
00
00
ENDCHAR
STARTCHAR 6a
ENCODING 106
SWIDTH 480 0
DWIDTH 8 0
BBX 8 16 0 -2
BITMAP
00
00
06
06
00
00
0e
06
06
06
06
06
06
66
66
3c
ENDCHAR
STARTCHAR 6b
ENCODING 107
SWIDTH 480 0
DWIDTH 8 0
BBX 8 16 0 -2
BITMAP
00
00
60
60
60
60
63
66
6c
78
78
6c
66
63
00
00
ENDCHAR
STARTCHAR 6c
ENCODING 108
SWIDTH 480 0
DWIDTH 8 0
BBX 8 16 0 -2
BITMAP
00
00
38
18
18
18
18
18
18
18
18
18
18
18
00
00
ENDCHAR
STARTCHAR 6d
ENCODING 109
SWIDTH 480 0
DWIDTH 8 0
BBX 8 16 0 -2
BITMAP
00
00
00
00
00
00
ee
db
db
db
db
db
db
db
00
00
ENDCHAR
STARTCHAR 6e
ENCODING 110
SWIDTH 480 0
DWIDTH 8 0
BBX 8 16 0 -2
BITMAP
00
00
00
00
00
00
5e
73
63
63
63
63
63
63
00
00
ENDCHAR
STARTCHAR 6f
ENCODING 111
SWIDTH 480 0
DWIDTH 8 0
BBX 8 16 0 -2
BITMAP
00
00
00
00
00
00
3c
66
c3
c3
c3
c3
66
3c
00
00
ENDCHAR
STARTCHAR 70
ENCODING 112
SWIDTH 480 0
DWIDTH 8 0
BBX 8 16 0 -2
BITMAP
00
00
00
00
00
00
5c
76
63
63
63
76
6c
60
60
60
ENDCHAR
STARTCHAR 71
ENCODING 113
SWIDTH 480 0
DWIDTH 8 0
BBX 8 16 0 -2
BITMAP
00
00
00
00
00
00
36
6e
c6
c6
c6
6e
36
06
06
06
ENDCHAR
STARTCHAR 72
ENCODING 114
SWIDTH 480 0
DWIDTH 8 0
BBX 8 16 0 -2
BITMAP
00
00
00
00
00
00
2e
3b
30
30
30
30
30
30
00
00
ENDCHAR
STARTCHAR 73
ENCODING 115
SWIDTH 480 0
DWIDTH 8 0
BBX 8 16 0 -2
BITMAP
00
00
00
00
00
00
3e
67
60
38
0e
03
73
3e
00
00
ENDCHAR
STARTCHAR 74
ENCODING 116
SWIDTH 480 0
DWIDTH 8 0
BBX 8 16 0 -2
BITMAP
00
00
18
18
18
18
7e
18
18
18
18
18
18
0e
00
00
ENDCHAR
STARTCHAR 75
ENCODING 117
SWIDTH 480 0
DWIDTH 8 0
BBX 8 16 0 -2
BITMAP
00
00
00
00
00
00
63
63
63
63
63
63
67
3b
00
00
ENDCHAR
STARTCHAR 76
ENCODING 118
SWIDTH 480 0
DWIDTH 8 0
BBX 8 16 0 -2
BITMAP
00
00
00
00
00
00
c3
c3
66
66
2c
3c
18
18
00
00
ENDCHAR
STARTCHAR 77
ENCODING 119
SWIDTH 480 0
DWIDTH 8 0
BBX 8 16 0 -2
BITMAP
00
00
00
00
00
00
c3
c3
db
db
db
db
66
66
00
00
ENDCHAR
STARTCHAR 78
ENCODING 120
SWIDTH 480 0
DWIDTH 8 0
BBX 8 16 0 -2
BITMAP
00
00
00
00
00
00
c3
66
2c
18
18
2c
66
c3
00
00
ENDCHAR
STARTCHAR 79
ENCODING 121
SWIDTH 480 0
DWIDTH 8 0
BBX 8 16 0 -2
BITMAP
00
00
00
00
00
00
c3
c3
66
66
2c
3c
18
18
30
e0
ENDCHAR
STARTCHAR 7a
ENCODING 122
SWIDTH 480 0
DWIDTH 8 0
BBX 8 16 0 -2
BITMAP
00
00
00
00
00
00
7f
03
06
0c
18
30
60
7f
00
00
ENDCHAR
STARTCHAR 7b
ENCODING 123
SWIDTH 480 0
DWIDTH 8 0
BBX 8 16 0 -2
BITMAP
00
00
0e
18
18
18
18
70
18
18
18
18
18
0e
00
00
ENDCHAR
STARTCHAR 7c
ENCODING 124
SWIDTH 480 0
DWIDTH 8 0
BBX 8 16 0 -2
BITMAP
00
00
1c
1c
1c
1c
1c
1c
1c
1c
1c
1c
1c
1c
00
00
ENDCHAR
STARTCHAR 7d
ENCODING 125
SWIDTH 480 0
DWIDTH 8 0
BBX 8 16 0 -2
BITMAP
00
00
38
0c
0c
0c
0c
07
0c
0c
0c
0c
0c
38
00
00
ENDCHAR
STARTCHAR 7e
ENCODING 126
SWIDTH 480 0
DWIDTH 8 0
BBX 8 16 0 -2
BITMAP
00
70
db
0e
00
00
00
00
00
00
00
00
00
00
00
00
ENDCHAR
STARTCHAR 7f
ENCODING 127
SWIDTH 480 0
DWIDTH 8 0
BBX 8 16 0 -2
BITMAP
00
00
c3
66
3c
18
ff
18
18
ff
18
18
18
18
00
00
ENDCHAR
STARTCHAR 80
ENCODING 128
SWIDTH 480 0
DWIDTH 8 0
BBX 8 16 0 -2
BITMAP
00
c0
c0
60
60
30
30
18
18
0c
0c
06
06
03
03
00
ENDCHAR
STARTCHAR 81
ENCODING 129
SWIDTH 480 0
DWIDTH 8 0
BBX 8 16 0 -2
BITMAP
00
70
db
0e
00
00
00
00
00
00
00
00
00
00
00
00
ENDCHAR
STARTCHAR 82
ENCODING 130
SWIDTH 480 0
DWIDTH 8 0
BBX 8 16 0 -2
BITMAP
00
18
18
18
18
18
18
00
00
18
18
18
18
18
18
00
ENDCHAR
STARTCHAR 83
ENCODING 131
SWIDTH 480 0
DWIDTH 8 0
BBX 8 16 0 -2
BITMAP
00
00
00
00
00
00
00
00
00
00
00
00
00
00
00
00
ENDCHAR
STARTCHAR 84
ENCODING 132
SWIDTH 480 0
DWIDTH 8 0
BBX 8 16 0 -2
BITMAP
00
00
00
00
00
00
00
00
00
00
00
00
00
00
00
00
ENDCHAR
STARTCHAR 85
ENCODING 133
SWIDTH 480 0
DWIDTH 8 0
BBX 8 16 0 -2
BITMAP
00
00
00
00
00
00
00
00
00
00
00
00
00
00
00
00
ENDCHAR
STARTCHAR 86
ENCODING 134
SWIDTH 480 0
DWIDTH 8 0
BBX 8 16 0 -2
BITMAP
00
30
30
fe
30
30
78
6f
dc
ac
2c
60
60
3e
00
00
ENDCHAR
STARTCHAR 87
ENCODING 135
SWIDTH 480 0
DWIDTH 8 0
BBX 8 16 0 -2
BITMAP
00
00
00
00
30
30
fe
30
3c
76
ab
ab
db
76
00
00
ENDCHAR
STARTCHAR 88
ENCODING 136
SWIDTH 480 0
DWIDTH 8 0
BBX 8 16 0 -2
BITMAP
00
00
00
00
00
c0
c6
c6
c3
c3
c3
b3
60
60
00
00
ENDCHAR
STARTCHAR 89
ENCODING 137
SWIDTH 480 0
DWIDTH 8 0
BBX 8 16 0 -2
BITMAP
00
00
00
00
70
1c
00
3e
e3
03
03
03
0e
38
00
00
ENDCHAR
STARTCHAR 8a
ENCODING 138
SWIDTH 480 0
DWIDTH 8 0
BBX 8 16 0 -2
BITMAP
00
00
00
00
70
1c
00
fe
0c
18
18
2c
6c
c7
00
00
ENDCHAR
STARTCHAR 8b
ENCODING 139
SWIDTH 480 0
DWIDTH 8 0
BBX 8 16 0 -2
BITMAP
00
00
00
00
30
30
fe
36
33
3e
73
b3
b3
6e
00
00
ENDCHAR
STARTCHAR 8c
ENCODING 140
SWIDTH 480 0
DWIDTH 8 0
BBX 8 16 0 -2
BITMAP
00
00
00
00
58
6c
3e
eb
33
36
30
18
18
18
00
00
ENDCHAR
STARTCHAR 8d
ENCODING 141
SWIDTH 480 0
DWIDTH 8 0
BBX 8 16 0 -2
BITMAP
00
00
00
00
18
2c
be
ab
eb
ab
ab
de
0c
18
00
00
ENDCHAR
STARTCHAR 8e
ENCODING 142
SWIDTH 480 0
DWIDTH 8 0
BBX 8 16 0 -2
BITMAP
00
00
00
00
18
18
1f
18
18
18
78
de
db
70
00
00
ENDCHAR
STARTCHAR 8f
ENCODING 143
SWIDTH 480 0
DWIDTH 8 0
BBX 8 16 0 -2
BITMAP
00
00
00
00
00
3c
e6
03
03
03
03
03
0e
38
00
00
ENDCHAR
STARTCHAR 90
ENCODING 144
SWIDTH 480 0
DWIDTH 8 0
BBX 8 16 0 -2
BITMAP
00
00
00
00
00
00
00
00
00
00
00
00
00
00
00
00
ENDCHAR
STARTCHAR 91
ENCODING 145
SWIDTH 480 0
DWIDTH 8 0
BBX 8 16 0 -2
BITMAP
00
30
30
fe
30
30
3c
6e
6b
ab
ab
bb
b6
6c
00
00
ENDCHAR
STARTCHAR 92
ENCODING 146
SWIDTH 480 0
DWIDTH 8 0
BBX 8 16 0 -2
BITMAP
00
00
00
c0
c6
c6
c3
c3
c3
c3
c3
5b
70
30
00
00
ENDCHAR
STARTCHAR 93
ENCODING 147
SWIDTH 480 0
DWIDTH 8 0
BBX 8 16 0 -2
BITMAP
00
70
1c
00
00
3c
e6
03
03
03
03
06
06
1c
70
00
ENDCHAR
STARTCHAR 94
ENCODING 148
SWIDTH 480 0
DWIDTH 8 0
BBX 8 16 0 -2
BITMAP
00
70
1c
00
fe
0c
0c
18
18
2c
6c
6c
cc
c7
00
00
ENDCHAR
STARTCHAR 95
ENCODING 149
SWIDTH 480 0
DWIDTH 8 0
BBX 8 16 0 -2
BITMAP
00
30
30
fe
30
36
33
30
3e
73
b3
b3
b3
6e
00
00
ENDCHAR
STARTCHAR 96
ENCODING 150
SWIDTH 480 0
DWIDTH 8 0
BBX 8 16 0 -2
BITMAP
00
30
36
36
fb
37
35
65
66
66
66
cc
ac
dc
00
00
ENDCHAR
STARTCHAR 97
ENCODING 151
SWIDTH 480 0
DWIDTH 8 0
BBX 8 16 0 -2
BITMAP
00
18
17
7c
0c
0f
fc
06
06
3f
63
60
60
3f
00
00
ENDCHAR
STARTCHAR 98
ENCODING 152
SWIDTH 480 0
DWIDTH 8 0
BBX 8 16 0 -2
BITMAP
00
03
06
0c
18
30
60
60
60
30
18
0c
06
03
00
00
ENDCHAR
STARTCHAR 99
ENCODING 153
SWIDTH 480 0
DWIDTH 8 0
BBX 8 16 0 -2
BITMAP
00
06
c6
c6
df
c3
c3
c3
c3
c3
c3
63
66
0c
00
00
ENDCHAR
STARTCHAR 9a
ENCODING 154
SWIDTH 480 0
DWIDTH 8 0
BBX 8 16 0 -2
BITMAP
00
00
7c
0e
18
00
00
00
00
60
c0
c0
70
1f
00
00
ENDCHAR
STARTCHAR 9b
ENCODING 155
SWIDTH 480 0
DWIDTH 8 0
BBX 8 16 0 -2
BITMAP
00
18
18
17
fc
0c
0c
06
3e
63
60
60
30
1f
00
00
ENDCHAR
STARTCHAR 9c
ENCODING 156
SWIDTH 480 0
DWIDTH 8 0
BBX 8 16 0 -2
BITMAP
00
c0
c0
c0
c0
c0
c0
c0
c0
c0
c1
c3
6e
38
00
00
ENDCHAR
STARTCHAR 9d
ENCODING 157
SWIDTH 480 0
DWIDTH 8 0
BBX 8 16 0 -2
BITMAP
00
06
06
ff
06
3e
66
66
66
66
3e
06
0c
38
00
00
ENDCHAR
STARTCHAR 9e
ENCODING 158
SWIDTH 480 0
DWIDTH 8 0
BBX 8 16 0 -2
BITMAP
00
00
63
63
ff
63
63
63
63
6e
60
60
60
3f
00
00
ENDCHAR
STARTCHAR 9f
ENCODING 159
SWIDTH 480 0
DWIDTH 8 0
BBX 8 16 0 -2
BITMAP
00
3e
06
0c
18
30
ff
0c
18
30
30
30
30
1e
00
00
ENDCHAR
STARTCHAR a0
ENCODING 160
SWIDTH 480 0
DWIDTH 8 0
BBX 8 16 0 -2
BITMAP
00
00
00
00
00
00
00
00
00
00
00
00
00
00
00
00
ENDCHAR
STARTCHAR a1
ENCODING 161
SWIDTH 480 0
DWIDTH 8 0
BBX 8 16 0 -2
BITMAP
00
00
00
00
00
00
00
00
00
00
00
00
38
6c
6c
38
ENDCHAR
STARTCHAR a2
ENCODING 162
SWIDTH 480 0
DWIDTH 8 0
BBX 8 16 0 -2
BITMAP
3f
30
30
30
30
30
30
30
30
30
00
00
00
00
00
00
ENDCHAR
STARTCHAR a3
ENCODING 163
SWIDTH 480 0
DWIDTH 8 0
BBX 8 16 0 -2
BITMAP
00
00
00
00
00
00
06
06
06
06
06
06
06
06
06
7e
ENDCHAR
STARTCHAR a4
ENCODING 164
SWIDTH 480 0
DWIDTH 8 0
BBX 8 16 0 -2
BITMAP
00
00
00
00
00
00
00
00
00
00
00
00
00
60
30
18
ENDCHAR
STARTCHAR a5
ENCODING 165
SWIDTH 480 0
DWIDTH 8 0
BBX 8 16 0 -2
BITMAP
00
00
00
00
00
00
00
18
1c
00
00
00
00
00
00
00
ENDCHAR
STARTCHAR a6
ENCODING 166
SWIDTH 480 0
DWIDTH 8 0
BBX 8 16 0 -2
BITMAP
00
00
00
7f
03
03
7f
03
03
03
06
06
1c
70
00
00
ENDCHAR
STARTCHAR a7
ENCODING 167
SWIDTH 480 0
DWIDTH 8 0
BBX 8 16 0 -2
BITMAP
00
00
00
00
00
00
ff
03
1b
16
1c
30
30
e0
00
00
ENDCHAR
STARTCHAR a8
ENCODING 168
SWIDTH 480 0
DWIDTH 8 0
BBX 8 16 0 -2
BITMAP
00
00
00
00
00
03
03
06
0c
3c
ec
0c
0c
0c
00
00
ENDCHAR
STARTCHAR a9
ENCODING 169
SWIDTH 480 0
DWIDTH 8 0
BBX 8 16 0 -2
BITMAP
00
00
00
00
00
18
18
ff
c3
c3
03
06
0c
78
00
00
ENDCHAR
STARTCHAR aa
ENCODING 170
SWIDTH 480 0
DWIDTH 8 0
BBX 8 16 0 -2
BITMAP
00
00
00
00
00
00
7e
18
18
18
18
18
18
ff
00
00
ENDCHAR
STARTCHAR ab
ENCODING 171
SWIDTH 480 0
DWIDTH 8 0
BBX 8 16 0 -2
BITMAP
00
00
00
00
00
0c
0c
ff
0c
1c
2c
6c
cc
0c
00
00
ENDCHAR
STARTCHAR ac
ENCODING 172
SWIDTH 480 0
DWIDTH 8 0
BBX 8 16 0 -2
BITMAP
00
00
00
00
00
60
60
ff
33
36
2c
18
18
18
00
00
ENDCHAR
STARTCHAR ad
ENCODING 173
SWIDTH 480 0
DWIDTH 8 0
BBX 8 16 0 -2
BITMAP
00
00
00
00
00
00
7c
0c
0c
0c
0c
0c
0c
ff
00
00
ENDCHAR
STARTCHAR ae
ENCODING 174
SWIDTH 480 0
DWIDTH 8 0
BBX 8 16 0 -2
BITMAP
00
00
00
00
00
00
7f
03
03
7f
03
03
03
7f
00
00
ENDCHAR
STARTCHAR af
ENCODING 175
SWIDTH 480 0
DWIDTH 8 0
BBX 8 16 0 -2
BITMAP
00
00
00
00
00
00
db
db
db
03
06
06
1c
f0
00
00
ENDCHAR
STARTCHAR b0
ENCODING 176
SWIDTH 480 0
DWIDTH 8 0
BBX 8 16 0 -2
BITMAP
00
00
00
00
00
00
00
00
ff
00
00
00
00
00
00
00
ENDCHAR
STARTCHAR b1
ENCODING 177
SWIDTH 480 0
DWIDTH 8 0
BBX 8 16 0 -2
BITMAP
00
00
00
ff
03
1b
1b
16
1c
18
30
30
60
c0
00
00
ENDCHAR
STARTCHAR b2
ENCODING 178
SWIDTH 480 0
DWIDTH 8 0
BBX 8 16 0 -2
BITMAP
00
00
03
03
06
0c
1c
2c
6c
cc
0c
0c
0c
0c
00
00
ENDCHAR
STARTCHAR b3
ENCODING 179
SWIDTH 480 0
DWIDTH 8 0
BBX 8 16 0 -2
BITMAP
00
00
18
18
ff
c3
c3
03
03
06
06
0c
18
70
00
00
ENDCHAR
STARTCHAR b4
ENCODING 180
SWIDTH 480 0
DWIDTH 8 0
BBX 8 16 0 -2
BITMAP
00
00
00
7e
18
18
18
18
18
18
18
18
18
ff
00
00
ENDCHAR
STARTCHAR b5
ENCODING 181
SWIDTH 480 0
DWIDTH 8 0
BBX 8 16 0 -2
BITMAP
00
00
0c
0c
ff
0c
1c
1c
2c
2c
6c
6c
cc
0c
00
00
ENDCHAR
STARTCHAR b6
ENCODING 182
SWIDTH 480 0
DWIDTH 8 0
BBX 8 16 0 -2
BITMAP
00
00
30
30
ff
33
33
33
63
63
63
63
c3
ce
00
00
ENDCHAR
STARTCHAR b7
ENCODING 183
SWIDTH 480 0
DWIDTH 8 0
BBX 8 16 0 -2
BITMAP
00
00
30
30
1e
f8
18
18
1f
f8
0c
0c
0c
0c
00
00
ENDCHAR
STARTCHAR b8
ENCODING 184
SWIDTH 480 0
DWIDTH 8 0
BBX 8 16 0 -2
BITMAP
00
00
00
3f
33
63
c3
03
06
06
0c
0c
18
70
00
00
ENDCHAR
STARTCHAR b9
ENCODING 185
SWIDTH 480 0
DWIDTH 8 0
BBX 8 16 0 -2
BITMAP
00
00
60
60
7f
6c
6c
cc
0c
0c
0c
18
18
70
00
00
ENDCHAR
STARTCHAR ba
ENCODING 186
SWIDTH 480 0
DWIDTH 8 0
BBX 8 16 0 -2
BITMAP
00
00
00
7f
03
03
03
03
03
03
03
03
03
7f
00
00
ENDCHAR
STARTCHAR bb
ENCODING 187
SWIDTH 480 0
DWIDTH 8 0
BBX 8 16 0 -2
BITMAP
00
00
66
66
66
ff
66
66
66
06
06
0c
0c
38
00
00
ENDCHAR
STARTCHAR bc
ENCODING 188
SWIDTH 480 0
DWIDTH 8 0
BBX 8 16 0 -2
BITMAP
00
00
00
f3
03
03
f3
03
06
06
0c
0c
18
70
00
00
ENDCHAR
STARTCHAR bd
ENCODING 189
SWIDTH 480 0
DWIDTH 8 0
BBX 8 16 0 -2
BITMAP
00
00
00
7e
06
06
06
0c
0c
16
16
33
63
c3
00
00
ENDCHAR
STARTCHAR be
ENCODING 190
SWIDTH 480 0
DWIDTH 8 0
BBX 8 16 0 -2
BITMAP
00
00
60
60
60
ff
63
63
66
6c
60
60
60
7f
00
00
ENDCHAR
STARTCHAR bf
ENCODING 191
SWIDTH 480 0
DWIDTH 8 0
BBX 8 16 0 -2
BITMAP
00
00
00
c3
c3
63
66
66
06
0c
0c
18
30
60
00
00
ENDCHAR
STARTCHAR c0
ENCODING 192
SWIDTH 480 0
DWIDTH 8 0
BBX 8 16 0 -2
BITMAP
00
00
00
3f
33
63
b3
1b
0e
06
0c
0c
18
70
00
00
ENDCHAR
STARTCHAR c1
ENCODING 193
SWIDTH 480 0
DWIDTH 8 0
BBX 8 16 0 -2
BITMAP
00
00
0e
78
18
18
18
ff
18
18
18
30
30
60
00
00
ENDCHAR
STARTCHAR c2
ENCODING 194
SWIDTH 480 0
DWIDTH 8 0
BBX 8 16 0 -2
BITMAP
00
00
00
db
db
db
db
03
03
06
06
0c
18
70
00
00
ENDCHAR
STARTCHAR c3
ENCODING 195
SWIDTH 480 0
DWIDTH 8 0
BBX 8 16 0 -2
BITMAP
00
00
7e
00
00
ff
18
18
18
18
18
30
30
60
00
00
ENDCHAR
STARTCHAR c4
ENCODING 196
SWIDTH 480 0
DWIDTH 8 0
BBX 8 16 0 -2
BITMAP
00
00
30
30
30
30
30
3c
37
30
30
30
30
30
00
00
ENDCHAR
STARTCHAR c5
ENCODING 197
SWIDTH 480 0
DWIDTH 8 0
BBX 8 16 0 -2
BITMAP
00
00
18
18
18
ff
18
18
18
18
18
30
30
60
00
00
ENDCHAR
STARTCHAR c6
ENCODING 198
SWIDTH 480 0
DWIDTH 8 0
BBX 8 16 0 -2
BITMAP
00
00
00
00
7e
00
00
00
00
00
00
00
00
ff
00
00
ENDCHAR
STARTCHAR c7
ENCODING 199
SWIDTH 480 0
DWIDTH 8 0
BBX 8 16 0 -2
BITMAP
00
00
00
7e
06
06
06
76
1c
0c
16
1b
30
e0
00
00
ENDCHAR
STARTCHAR c8
ENCODING 200
SWIDTH 480 0
DWIDTH 8 0
BBX 8 16 0 -2
BITMAP
00
00
18
18
ff
06
0c
18
3c
56
db
18
18
18
00
00
ENDCHAR
STARTCHAR c9
ENCODING 201
SWIDTH 480 0
DWIDTH 8 0
BBX 8 16 0 -2
BITMAP
00
00
00
03
03
03
03
06
06
0c
0c
18
30
60
00
00
ENDCHAR
STARTCHAR ca
ENCODING 202
SWIDTH 480 0
DWIDTH 8 0
BBX 8 16 0 -2
BITMAP
00
00
00
0c
66
66
66
66
63
63
63
c3
c3
c3
00
00
ENDCHAR
STARTCHAR cb
ENCODING 203
SWIDTH 480 0
DWIDTH 8 0
BBX 8 16 0 -2
BITMAP
00
00
00
60
60
60
67
7c
60
60
60
60
60
3f
00
00
ENDCHAR
STARTCHAR cc
ENCODING 204
SWIDTH 480 0
DWIDTH 8 0
BBX 8 16 0 -2
BITMAP
00
00
00
fe
06
06
06
06
06
0c
0c
18
30
e0
00
00
ENDCHAR
STARTCHAR cd
ENCODING 205
SWIDTH 480 0
DWIDTH 8 0
BBX 8 16 0 -2
BITMAP
00
00
00
70
58
58
cc
cc
06
06
06
03
03
03
00
00
ENDCHAR
STARTCHAR ce
ENCODING 206
SWIDTH 480 0
DWIDTH 8 0
BBX 8 16 0 -2
BITMAP
00
00
18
18
ff
18
18
56
56
5b
db
db
18
18
00
00
ENDCHAR
STARTCHAR cf
ENCODING 207
SWIDTH 480 0
DWIDTH 8 0
BBX 8 16 0 -2
BITMAP
00
00
00
ff
03
03
03
06
06
6c
38
18
0c
0c
00
00
ENDCHAR
STARTCHAR d0
ENCODING 208
SWIDTH 480 0
DWIDTH 8 0
BBX 8 16 0 -2
BITMAP
00
00
00
70
1c
06
00
70
1c
06
00
f0
1c
07
00
00
ENDCHAR
STARTCHAR d1
ENCODING 209
SWIDTH 480 0
DWIDTH 8 0
BBX 8 16 0 -2
BITMAP
00
00
18
18
18
30
30
30
66
66
66
c3
c3
ff
00
00
ENDCHAR
STARTCHAR d2
ENCODING 210
SWIDTH 480 0
DWIDTH 8 0
BBX 8 16 0 -2
BITMAP
00
00
06
06
06
66
2c
1c
16
1b
30
30
60
c0
00
00
ENDCHAR
STARTCHAR d3
ENCODING 211
SWIDTH 480 0
DWIDTH 8 0
BBX 8 16 0 -2
BITMAP
00
00
00
7f
18
18
18
ff
18
18
18
18
18
0f
00
00
ENDCHAR
STARTCHAR d4
ENCODING 212
SWIDTH 480 0
DWIDTH 8 0
BBX 8 16 0 -2
BITMAP
00
00
60
60
60
ff
33
36
2c
30
30
18
18
18
00
00
ENDCHAR
STARTCHAR d5
ENCODING 213
SWIDTH 480 0
DWIDTH 8 0
BBX 8 16 0 -2
BITMAP
00
00
00
7c
0c
0c
0c
0c
0c
0c
0c
0c
0c
ff
00
00
ENDCHAR
STARTCHAR d6
ENCODING 214
SWIDTH 480 0
DWIDTH 8 0
BBX 8 16 0 -2
BITMAP
00
00
00
7f
03
03
03
03
7f
03
03
03
03
7f
00
00
ENDCHAR
STARTCHAR d7
ENCODING 215
SWIDTH 480 0
DWIDTH 8 0
BBX 8 16 0 -2
BITMAP
00
00
7e
00
00
ff
03
03
03
06
06
0c
18
70
00
00
ENDCHAR
STARTCHAR d8
ENCODING 216
SWIDTH 480 0
DWIDTH 8 0
BBX 8 16 0 -2
BITMAP
00
00
00
63
63
63
63
63
63
03
06
06
0c
38
00
00
ENDCHAR
STARTCHAR d9
ENCODING 217
SWIDTH 480 0
DWIDTH 8 0
BBX 8 16 0 -2
BITMAP
00
00
0c
6c
6c
6c
6c
6c
6c
6b
6b
ce
ce
cc
00
00
ENDCHAR
STARTCHAR da
ENCODING 218
SWIDTH 480 0
DWIDTH 8 0
BBX 8 16 0 -2
BITMAP
00
00
60
60
60
60
63
63
66
66
6c
58
70
60
00
00
ENDCHAR
STARTCHAR db
ENCODING 219
SWIDTH 480 0
DWIDTH 8 0
BBX 8 16 0 -2
BITMAP
00
00
00
ff
c3
c3
c3
c3
c3
c3
c3
c3
c3
ff
00
00
ENDCHAR
STARTCHAR dc
ENCODING 220
SWIDTH 480 0
DWIDTH 8 0
BBX 8 16 0 -2
BITMAP
00
00
00
ff
c3
c3
03
03
03
03
06
06
0c
38
00
00
ENDCHAR
STARTCHAR dd
ENCODING 221
SWIDTH 480 0
DWIDTH 8 0
BBX 8 16 0 -2
BITMAP
00
00
00
e0
33
03
03
03
06
06
0c
0c
38
e0
00
00
ENDCHAR
STARTCHAR de
ENCODING 222
SWIDTH 480 0
DWIDTH 8 0
BBX 8 16 0 -2
BITMAP
00
30
d8
6c
30
00
00
00
00
00
00
00
00
00
00
00
ENDCHAR
STARTCHAR df
ENCODING 223
SWIDTH 480 0
DWIDTH 8 0
BBX 8 16 0 -2
BITMAP
00
70
d8
d8
70
00
00
00
00
00
00
00
00
00
00
00
ENDCHAR
STARTCHAR e0
ENCODING 224
SWIDTH 480 0
DWIDTH 8 0
BBX 8 16 0 -2
BITMAP
00
30
30
fe
30
30
2f
66
60
60
60
d8
b0
df
00
00
ENDCHAR
STARTCHAR e1
ENCODING 225
SWIDTH 480 0
DWIDTH 8 0
BBX 8 16 0 -2
BITMAP
00
30
30
ff
30
30
60
7e
e3
c3
03
03
0e
78
00
00
ENDCHAR
STARTCHAR e2
ENCODING 226
SWIDTH 480 0
DWIDTH 8 0
BBX 8 16 0 -2
BITMAP
00
00
3c
e6
03
03
03
03
03
03
03
06
0c
38
00
00
ENDCHAR
STARTCHAR e3
ENCODING 227
SWIDTH 480 0
DWIDTH 8 0
BBX 8 16 0 -2
BITMAP
00
00
ff
0c
18
18
30
30
30
30
30
30
18
0e
00
00
ENDCHAR
STARTCHAR e4
ENCODING 228
SWIDTH 480 0
DWIDTH 8 0
BBX 8 16 0 -2
BITMAP
00
60
60
30
30
37
1c
30
60
c0
c0
c0
60
3f
00
00
ENDCHAR
STARTCHAR e5
ENCODING 229
SWIDTH 480 0
DWIDTH 8 0
BBX 8 16 0 -2
BITMAP
00
30
30
fc
33
33
61
65
66
66
de
b7
b5
1c
00
00
ENDCHAR
STARTCHAR e6
ENCODING 230
SWIDTH 480 0
DWIDTH 8 0
BBX 8 16 0 -2
BITMAP
00
00
c0
df
c6
c0
c0
c0
c0
c0
d8
b0
b0
df
00
00
ENDCHAR
STARTCHAR e7
ENCODING 231
SWIDTH 480 0
DWIDTH 8 0
BBX 8 16 0 -2
BITMAP
00
0c
6c
6c
3e
6b
6b
ab
db
db
d7
ab
ab
66
00
00
ENDCHAR
STARTCHAR e8
ENCODING 232
SWIDTH 480 0
DWIDTH 8 0
BBX 8 16 0 -2
BITMAP
00
30
30
2e
fb
33
33
33
73
73
b3
af
3b
2e
00
00
ENDCHAR
STARTCHAR e9
ENCODING 233
SWIDTH 480 0
DWIDTH 8 0
BBX 8 16 0 -2
BITMAP
00
00
00
3c
56
56
db
db
db
db
db
b3
b6
66
00
00
ENDCHAR
STARTCHAR ea
ENCODING 234
SWIDTH 480 0
DWIDTH 8 0
BBX 8 16 0 -2
BITMAP
00
06
c6
bf
c6
c6
c6
c6
c6
c6
de
b7
b6
dc
00
00
ENDCHAR
STARTCHAR eb
ENCODING 235
SWIDTH 480 0
DWIDTH 8 0
BBX 8 16 0 -2
BITMAP
00
00
18
f0
36
66
67
66
c6
c6
c6
c6
cc
78
00
00
ENDCHAR
STARTCHAR ec
ENCODING 236
SWIDTH 480 0
DWIDTH 8 0
BBX 8 16 0 -2
BITMAP
00
00
38
0c
0c
18
36
b6
db
cb
cb
cb
ab
38
00
00
ENDCHAR
STARTCHAR ed
ENCODING 237
SWIDTH 480 0
DWIDTH 8 0
BBX 8 16 0 -2
BITMAP
00
00
00
30
30
58
58
cc
cc
06
06
03
03
00
00
00
ENDCHAR
STARTCHAR ee
ENCODING 238
SWIDTH 480 0
DWIDTH 8 0
BBX 8 16 0 -2
BITMAP
00
00
bf
c6
c6
bf
c6
c6
c6
c6
de
b7
b6
dc
00
00
ENDCHAR
STARTCHAR ef
ENCODING 239
SWIDTH 480 0
DWIDTH 8 0
BBX 8 16 0 -2
BITMAP
00
18
18
ff
18
18
ff
18
18
18
78
de
db
70
00
00
ENDCHAR
STARTCHAR f0
ENCODING 240
SWIDTH 480 0
DWIDTH 8 0
BBX 8 16 0 -2
BITMAP
00
00
78
18
18
1b
1b
3f
5b
db
db
b3
b6
66
00
00
ENDCHAR
STARTCHAR f1
ENCODING 241
SWIDTH 480 0
DWIDTH 8 0
BBX 8 16 0 -2
BITMAP
00
30
30
fe
30
36
73
b1
b0
b0
b3
b3
73
1e
00
00
ENDCHAR
STARTCHAR f2
ENCODING 242
SWIDTH 480 0
DWIDTH 8 0
BBX 8 16 0 -2
BITMAP
00
18
18
18
dc
b6
5b
5b
5b
bb
db
b3
b6
66
00
00
ENDCHAR
STARTCHAR f3
ENCODING 243
SWIDTH 480 0
DWIDTH 8 0
BBX 8 16 0 -2
BITMAP
00
18
18
fe
30
30
b0
fc
60
66
63
63
63
3e
00
00
ENDCHAR
STARTCHAR f4
ENCODING 244
SWIDTH 480 0
DWIDTH 8 0
BBX 8 16 0 -2
BITMAP
00
18
6c
6c
3e
eb
2b
33
36
18
18
18
18
18
00
00
ENDCHAR
STARTCHAR f5
ENCODING 245
SWIDTH 480 0
DWIDTH 8 0
BBX 8 16 0 -2
BITMAP
00
18
2c
2c
be
ab
eb
ab
ab
ab
de
0c
0c
18
00
00
ENDCHAR
STARTCHAR f6
ENCODING 246
SWIDTH 480 0
DWIDTH 8 0
BBX 8 16 0 -2
BITMAP
00
18
18
18
1f
18
18
18
18
18
78
de
db
70
00
00
ENDCHAR
STARTCHAR f7
ENCODING 247
SWIDTH 480 0
DWIDTH 8 0
BBX 8 16 0 -2
BITMAP
00
78
0e
00
60
60
60
be
e3
c3
03
03
0e
78
00
00
ENDCHAR
STARTCHAR f8
ENCODING 248
SWIDTH 480 0
DWIDTH 8 0
BBX 8 16 0 -2
BITMAP
00
00
6e
5b
db
b3
b3
e3
63
63
06
06
0c
38
00
00
ENDCHAR
STARTCHAR f9
ENCODING 249
SWIDTH 480 0
DWIDTH 8 0
BBX 8 16 0 -2
BITMAP
00
00
7e
06
0c
18
30
7c
e6
c3
03
3b
6e
3c
00
00
ENDCHAR
STARTCHAR fa
ENCODING 250
SWIDTH 480 0
DWIDTH 8 0
BBX 8 16 0 -2
BITMAP
00
30
30
2e
fb
33
33
33
76
76
b6
b6
33
30
00
00
ENDCHAR
STARTCHAR fb
ENCODING 251
SWIDTH 480 0
DWIDTH 8 0
BBX 8 16 0 -2
BITMAP
00
00
7e
06
0c
18
30
7c
e6
c3
03
03
0e
78
00
00
ENDCHAR
STARTCHAR fc
ENCODING 252
SWIDTH 480 0
DWIDTH 8 0
BBX 8 16 0 -2
BITMAP
00
30
30
2e
fb
33
33
33
73
73
b3
b3
36
2c
00
00
ENDCHAR
STARTCHAR fd
ENCODING 253
SWIDTH 480 0
DWIDTH 8 0
BBX 8 16 0 -2
BITMAP
00
30
30
30
30
60
60
70
5b
5b
db
db
db
ce
00
00
ENDCHAR
STARTCHAR fe
ENCODING 254
SWIDTH 480 0
DWIDTH 8 0
BBX 8 16 0 -2
BITMAP
00
00
00
00
00
00
00
00
00
00
00
00
00
00
00
00
ENDCHAR
STARTCHAR ff
ENCODING 255
SWIDTH 480 0
DWIDTH 8 0
BBX 8 16 0 -2
BITMAP
00
00
00
00
00
00
00
00
00
00
00
00
00
00
00
00
ENDCHAR
ENDFONT
